<svg width="101" height="65" viewBox="0 0 101 65" fill="none" xmlns="http://www.w3.org/2000/svg">
<path d="M37.236 10.6018C34.9229 1.66543 45.8797 -0.508281 47.2189 7.94507C48.5581 16.3984 39.549 19.5382 37.236 10.6018Z" fill="#383B6E"/>
<path d="M28.2268 17.0022C26.5224 9.7565 34.9227 8.54888 36.7489 15.6738C38.5751 22.7988 29.9313 24.248 28.2268 17.0022Z" fill="#383B6E"/>
<path d="M62.4369 17.0022C62.4369 9.63574 71.6894 9.27345 70.9589 15.6738C70.2285 22.0742 62.4369 24.3687 62.4369 17.0022Z" fill="#383B6E"/>
<path d="M51.8451 10.1188C51.1146 0.578591 60.8542 -0.870564 61.828 7.46202C62.8019 15.7946 52.5757 19.659 51.8451 10.1188Z" fill="#383B6E"/>
<path d="M50.019 42C50.019 42 59.7585 37.2903 63.289 28.8369C66.8196 20.3836 57.6326 13.4588 50.019 21.1081C36.8659 10.2226 25.9371 30.18 50.019 42Z" fill="#383B6E"/>
<path d="M37.236 10.6018C34.9229 1.66543 45.8797 -0.508281 47.2189 7.94507C48.5581 16.3984 39.549 19.5382 37.236 10.6018Z" stroke="#FF8247"/>
<path d="M28.2268 17.0022C26.5224 9.7565 34.9227 8.54888 36.7489 15.6738C38.5751 22.7988 29.9313 24.248 28.2268 17.0022Z" stroke="#FF8247"/>
<path d="M62.4369 17.0022C62.4369 9.63574 71.6894 9.27345 70.9589 15.6738C70.2285 22.0742 62.4369 24.3687 62.4369 17.0022Z" stroke="#FF8247"/>
<path d="M51.8451 10.1188C51.1146 0.578591 60.8542 -0.870564 61.828 7.46202C62.8019 15.7946 52.5757 19.659 51.8451 10.1188Z" stroke="#FF8247"/>
<path d="M50.019 42C50.019 42 59.7585 37.2903 63.289 28.8369C66.8196 20.3836 57.6326 13.4588 50.019 21.1081C36.8659 10.2226 25.9371 30.18 50.019 42Z" stroke="#FF8247"/>
<path d="M22.5836 58V47.568H30.7276V58H28.3756V49.552H24.9356V58H22.5836ZM33.1929 58V47.568H36.7769C37.5449 47.568 38.2383 47.6747 38.8569 47.888C39.4863 48.0907 39.9876 48.4373 40.3609 48.928C40.7343 49.4187 40.9209 50.0853 40.9209 50.928C40.9209 51.7387 40.7343 52.4053 40.3609 52.928C39.9876 53.4507 39.4916 53.84 38.8729 54.096C38.2543 54.3413 37.5769 54.464 36.8409 54.464H35.5449V58H33.1929ZM35.5449 52.592H36.6969C37.9769 52.592 38.6169 52.0373 38.6169 50.928C38.6169 50.384 38.4463 50 38.1049 49.776C37.7636 49.552 37.2729 49.44 36.6329 49.44H35.5449V52.592ZM42.7242 58V47.568H45.0602V51.248C45.0602 51.8667 45.0229 52.5173 44.9482 53.2C44.8735 53.8827 44.8095 54.5013 44.7562 55.056H44.8202L45.8442 52.768L48.5802 47.568H51.0762V58H48.7562V54.304C48.7562 53.6853 48.7935 53.0453 48.8682 52.384C48.9429 51.7227 49.0015 51.104 49.0442 50.528H48.9802L47.9562 52.8L45.2202 58H42.7242Z" fill="#383B6E"/>
<path d="M53.5367 58V47.568H57.1047C57.83 47.568 58.4807 47.648 59.0567 47.808C59.6327 47.9573 60.0914 48.2187 60.4327 48.592C60.774 48.9653 60.9447 49.488 60.9447 50.16C60.9447 50.6187 60.822 51.072 60.5767 51.52C60.342 51.9573 60.0114 52.256 59.5847 52.416V52.48C60.118 52.6187 60.5607 52.8907 60.9127 53.296C61.2754 53.6907 61.4567 54.2347 61.4567 54.928C61.4567 55.6427 61.2754 56.224 60.9127 56.672C60.55 57.12 60.0647 57.456 59.4567 57.68C58.8487 57.8933 58.166 58 57.4087 58H53.5367ZM55.8887 51.744H56.9927C57.5687 51.744 57.9847 51.632 58.2407 51.408C58.5074 51.184 58.6407 50.8853 58.6407 50.512C58.6407 50.1067 58.5074 49.8187 58.2407 49.648C57.974 49.4773 57.5634 49.392 57.0087 49.392H55.8887V51.744ZM55.8887 56.176H57.2167C58.5074 56.176 59.1527 55.7067 59.1527 54.768C59.1527 54.3093 58.9927 53.984 58.6727 53.792C58.3527 53.5893 57.8674 53.488 57.2167 53.488H55.8887V56.176ZM63.2242 58V47.568H69.7522V49.552H65.5762V51.648H69.1282V53.616H65.5762V56.016H69.9122V58H63.2242ZM74.0218 58V49.552H71.1578V47.568H79.2538V49.552H76.3898V58H74.0218Z" fill="#FF8247"/>
</svg>
